#!OML:ASF E:\Mandelcareful walks\Project 1\Capture day 1\Session 1\Subject1.ASF
:FULLY-SPECIFIED
:DEGREES
423
root -2.09515 15.6649 1.10408 54.7733 74.434 43.0159
lowerback 34.4217 0.547549 -1.76621
upperback 7.52798 0.767708 -0.633387
thorax -9.15015 0.704217 -0.0711081
lowerneck -23.293 10.3413 4.3111
upperneck 20.6086 17.4941 -15.3988
head 12.6448 6.42363 -3.19231
rclavicle -1.98785e-014 1.27222e-014
rhumerus -29.6558 26.3559 -86.7299
rradius 81.2741
rwrist -28.2906
rhand -21.0467 -30.746
rfingers 7.12502
rthumb 5.32923 -60.659
lclavicle -1.98785e-014 1.27222e-014
lhumerus -19.0729 -14.4693 74.7082
lradius 49.4946
lwrist 26.0311
lhand -28.1375 -15.6743
lfingers 7.12502
lthumb -1.51873 14.3
rfemur -40.4853 -10.8477 5.35248
rtibia 61.1509
rfoot -25.3985 -7.67845
rtoes -2.35618
lfemur -29.0357 26.16 -13.931
ltibia 36.2958
lfoot -6.94684 9.46683
ltoes -19.7777
424
root -2.06077 15.678 1.14809 58.6852 75.252 47.1304
lowerback 33.6581 0.751746 -1.57526
upperback 7.48682 1.06584 -0.911558
thorax -8.90491 0.838782 -0.566458
lowerneck -22.8818 11.0754 5.12225
upperneck 20.7432 18.5438 -16.0683
head 12.9182 6.89243 -3.35342
rclavicle -1.59028e-015 -1.11319e-014
rhumerus -30.691 26.147 -87.3607
rradius 81.0439
rwrist -28.1526
rhand -20.9775 -31.3895
rfingers 7.12502
rthumb 5.39606 -61.3008
lclavicle -1.59028e-015 -1.11319e-014
lhumerus -19.1642 -15.2366 74.6124
lradius 48.9592
lwrist 26.5736
lhand -27.8335 -15.7064
lfingers 7.12502
lthumb -1.22514 14.2698
rfemur -39.5839 -11.292 5.21989
rtibia 60.9724
rfoot -25.6361 -8.03652
rtoes -2.32293
lfemur -28.7029 25.3699 -13.9425
ltibia 35.4577
lfoot -6.44163 9.17302
ltoes -19.3092
425
root -2.02757 15.6879 1.18887 62.0522 75.9741 50.7253
lowerback 33.1118 1.06674 -1.52814
upperback 7.39181 1.46369 -1.0348
thorax -8.79756 1.02024 -0.858631
lowerneck -22.4157 11.6985 5.6528
upperneck 20.9633 19.5583 -16.6677
head 13.193 7.33323 -3.45097
rclavicle 7.95139e-015 2.54444e-014
rhumerus -31.528 26.2427 -87.8419
rradius 80.6165
rwrist -28.1472
rhand -20.6632 -32.2618
rfingers 7.12502
rthumb 5.69956 -62.1652
lclavicle 7.95139e-015 2.54444e-014
lhumerus -19.4006 -15.8671 74.6648
lradius 48.5722
lwrist 26.745
lhand -27.3376 -15.3012
lfingers 7.12502
lthumb -0.746185 14.6773
rfemur -38.7162 -11.5611 5.24172
rtibia 60.7828
rfoot -25.7876 -8.55993
rtoes -2.16538
lfemur -28.2605 24.7162 -13.7839
ltibia 34.5715
lfoot -5.93166 8.87829
ltoes -19.1025
426
root -1.99363 15.6963 1.22651 65.781 76.5406 54.6727
lowerback 32.6978 1.42236 -1.74477
upperback 7.26936 1.83388 -1.07039
thorax -8.77325 1.19232 -0.907991
lowerneck -22.1264 12.3275 6.06637
upperneck 21.3834 20.6805 -17.2234
head 13.5998 7.79312 -3.4798
rclavicle -3.02153e-014 3.18055e-015
rhumerus -32.2892 26.5809 -88.1595
rradius 80.1936
rwrist -28.1737
rhand -20.1066 -33.0453
rfingers 7.12502
rthumb 6.23693 -62.9335
lclavicle -3.02153e-014 3.18055e-015
lhumerus -19.751 -16.2429 74.853
lradius 48.2349
lwrist 26.3986
lhand -27.0943 -14.551
lfingers 7.12502
lthumb -0.511205 15.4281
rfemur -37.8652 -11.9359 5.19545
rtibia 60.5718
rfoot -25.9076 -9.02434
rtoes -2.03149
lfemur -27.8819 24.1645 -13.7573
ltibia 33.7535
lfoot -5.42726 8.53348
ltoes -19.4229
427
root -1.94293 15.713 1.25703 74.9456 77.4333 64.5373
lowerback 32.2013 1.0636 -1.26088
upperback 7.81017 1.57197 -1.17199
thorax -8.7094 1.06873 -1.24817
lowerneck -21.0081 12.8832 7.20204
upperneck 20.7986 21.5212 -18.5913
head 13.6245 8.22234 -4.00489
rclavicle 2.38542e-015 4.45278e-014
rhumerus -32.6319 26.9352 -88.4552
rradius 79.5968
rwrist -28.2434
rhand -19.748 -33.707
rfingers 7.12502
rthumb 6.58308 -63.5847
lclavicle 2.38542e-015 4.45278e-014
lhumerus -20.0296 -16.563 74.8837
lradius 48.0285
lwrist 25.874
lhand -27.1112 -14.1291
lfingers 7.12502
lthumb -0.5275 15.85
rfemur -35.9097 -13.5085 4.88245
rtibia 60.2492
rfoot -26.5063 -9.36612
rtoes -1.8054
lfemur -27.3317 22.5299 -13.78
ltibia 33.0128
lfoot -4.87253 7.96753
ltoes -20.0469
428
root -1.90753 15.7148 1.28276 80.4606 77.9068 70.4087
lowerback 32.0349 1.21056 -1.28594
upperback 7.70778 1.75183 -1.16473
thorax -8.74854 1.15297 -1.29197
lowerneck -20.588 13.3618 7.57356
upperneck 21.1691 22.4413 -19.0507
head 13.9729 8.6168 -4.03744
rclavicle 1.27222e-014 -4.92986e-014
rhumerus -32.9883 27.7057 -88.6742
rradius 78.8162
rwrist -28.2535
rhand -19.8689 -33.2258
rfingers 7.12502
rthumb 6.46638 -63.1071
lclavicle 1.27222e-014 -4.92986e-014
lhumerus -20.6137 -16.7388 75.0914
lradius 47.9117
lwrist 25.4795
lhand -27.0535 -14.2551
lfingers 7.12502
lthumb -0.471747 15.7241
rfemur -34.7506 -14.2791 4.88332
rtibia 59.9344
rfoot -27.0324 -9.74579
rtoes -1.75198
lfemur -26.9676 21.7478 -13.6304
ltibia 32.4593
lfoot -4.48992 7.56282
ltoes -20.3193
429
root -1.87618 15.7098 1.30784 84.4845 78.2232 74.6419
lowerback 31.6332 1.44003 -1.23646
upperback 7.70971 2.05134 -1.31987
thorax -8.54708 1.29463 -1.59573
lowerneck -20.0329 13.756 8.05165
upperneck 21.1927 23.2128 -19.7407
head 14.1941 8.96522 -4.20614
rclavicle -4.37326e-014 -1.43125e-014
rhumerus -33.2622 28.2497 -89.0429
rradius 78.3223
rwrist -27.8843
rhand -20.0586 -32.7959
rfingers 7.12502
rthumb 6.28323 -62.6828
lclavicle -4.37326e-014 -1.43125e-014
lhumerus -20.9176 -16.9831 75.0341
lradius 47.6877
lwrist 25.177
lhand -26.8507 -14.2787
lfingers 7.12502
lthumb -0.275841 15.7009
rfemur -33.8869 -14.7111 4.98304
rtibia 59.6295
rfoot -27.6363 -10.0737
rtoes -1.49009
lfemur -26.7236 21.2891 -13.436
ltibia 32.0792
lfoot -4.27217 7.19057
ltoes -20.0236
430
root -1.85366 15.7048 1.32785 87.4483 78.3896 77.6188
lowerback 31.2013 1.82662 -1.34037
upperback 7.6696 2.49638 -1.46325
thorax -8.37923 1.50376 -1.8472
lowerneck -21.4857 14.1226 7.44193
upperneck 23.5753 24.2301 -18.5478
head 15.4062 9.20565 -3.37079
rclavicle -1.90833e-014 2.38542e-014
rhumerus -33.7177 28.2176 -89.2734
rradius 78.8369
rwrist -27.326
rhand -19.814 -33.7803
rfingers 7.12502
rthumb 6.51937 -63.6599
lclavicle -1.90833e-014 2.38542e-014
lhumerus -21.2294 -17.0911 75.0902
lradius 47.5073
lwrist 24.775
lhand -26.7541 -13.9712
lfingers 7.12502
lthumb -0.182632 16.0085
rfemur -33.3885 -14.9818 5.05434
rtibia 59.4234
rfoot -28.2508 -10.1013
rtoes -0.51006
lfemur -26.7994 21.06 -13.3804
ltibia 31.9536
lfoot -4.07574 6.82404
ltoes -20.0135
431
root -1.83915 15.7029 1.34366 90.2155 78.5791 80.3528
lowerback 30.8366 2.17835 -1.42187
upperback 7.66477 2.91131 -1.59656
thorax -8.20036 1.70131 -2.08595
lowerneck -20.9884 14.2853 7.74959
upperneck 23.3555 24.554 -19.0156
head 15.3995 9.3789 -3.53249
rclavicle 0 3.33958e-014
rhumerus -33.6084 28.5719 -89.3526
rradius 78.6352
rwrist -27.2135
rhand -19.9545 -33.4186
rfingers 7.12502
rthumb 6.38378 -63.3024
lclavicle 0 3.33958e-014
lhumerus -21.5497 -17.0113 75.0994
lradius 47.4229
lwrist 24.6007
lhand -26.6094 -13.9547
lfingers 7.12502
lthumb -0.0428269 16.025
rfemur -33.0817 -15.2938 5.2051
rtibia 59.3113
rfoot -28.5883 -10.0813
rtoes 0.28726
lfemur -27.026 20.8004 -13.2986
ltibia 31.95
lfoot -3.83969 6.57843
ltoes -20.6686
432
root -1.83139 15.7012 1.35819 92.5856 78.8301 82.6981
lowerback 30.5347 2.47334 -1.40448
upperback 7.7177 3.29139 -1.73544
thorax -7.97878 1.88542 -2.37172
lowerneck -19.7131 14.5596 8.42189
upperneck 22.4071 25.1862 -20.5243
head 15.2407 9.7288 -4.09387
rclavicle -2.06736e-014 3.18055e-015
rhumerus -33.3152 29.013 -89.361
rradius 78.5904
rwrist -27.5104
rhand -20.1205 -33.0846
rfingers 7.12502
rthumb 6.22346 -62.9731
lclavicle -2.06736e-014 3.18055e-015
lhumerus -21.7828 -16.7073 75.0873
lradius 47.2874
lwrist 24.6583
lhand -26.3847 -14.0845
lfingers 7.12502
lthumb 0.174184 15.8952
rfemur -32.9675 -15.5812 5.50727
rtibia 59.2809
rfoot -28.5533 -10.3388
rtoes -0.179132
lfemur -27.2672 20.499 -13.0964
ltibia 32.019
lfoot -3.65906 6.51692
ltoes -21.1202
433
root -1.82594 15.6986 1.36984 94.5549 79.0923 84.6992
lowerback 30.3449 2.69313 -1.37706
upperback 7.78661 3.57809 -1.91174
thorax -7.78866 2.02797 -2.67399
lowerneck -18.6345 14.6692 8.94386
upperneck 21.3594 25.3447 -21.5608
head 14.8785 9.90653 -4.5602
rclavicle -7.15625e-015 6.36111e-015
rhumerus -32.9527 29.5991 -89.4475
rradius 78.7092
rwrist -27.912
rhand -20.1862 -32.8043
rfingers 7.12502
rthumb 6.16007 -62.6947
lclavicle -7.15625e-015 6.36111e-015
lhumerus -22.0194 -16.1521 74.9895
lradius 47.1883
lwrist 24.7087
lhand -26.3485 -13.949
lfingers 7.12502
lthumb 0.209197 16.0306
rfemur -32.8571 -15.8819 5.8439
rtibia 59.264
rfoot -28.4158 -10.5962
rtoes -0.761258
lfemur -27.4166 20.1837 -12.8082
ltibia 32.1262
lfoot -3.65562 6.53271
ltoes -20.5766
434
root -1.81861 15.6968 1.37685 96.4323 79.2925 86.6861
lowerback 30.2423 2.84484 -1.31979
upperback 7.91072 3.78982 -2.15688
thorax -7.57014 2.14067 -3.04467
lowerneck -18.4219 14.7803 9.15001
upperneck 21.2778 25.4765 -21.6355
head 14.8697 9.99262 -4.59358
rclavicle -2.54444e-014 -3.81667e-014
rhumerus -32.3414 30.2009 -89.5053
rradius 78.8134
rwrist -28.0612
rhand -20.1722 -32.9859
rfingers 7.12502
rthumb 6.17358 -62.8759
lclavicle -2.54444e-014 -3.81667e-014
lhumerus -22.1843 -15.5109 74.7695
lradius 47.0265
lwrist 24.7251
lhand -26.266 -13.9753
lfingers 7.12502
lthumb 0.28879 16.0042
rfemur -32.6044 -16.319 6.07931
rtibia 59.1955
rfoot -28.3618 -10.6672
rtoes -0.649591
lfemur -27.4498 19.8349 -12.5448
ltibia 32.2693
lfoot -3.84632 6.60795
ltoes -19.2589
435
root -1.81264 15.6944 1.38076 98.3009 79.3909 88.6801
lowerback 30.0428 3.02709 -1.25548
upperback 8.15532 4.06034 -2.41406
thorax -7.16253 2.2916 -3.43805
lowerneck -18.5976 14.784 9.10938
upperneck 21.4759 25.5126 -21.4978
head 14.9654 9.98891 -4.52046
rclavicle -5.08889e-014 1.11319e-014
rhumerus -31.3278 30.6276 -89.2515
rradius 78.7645
rwrist -28.1796
rhand -20.4339 -33.1634
rfingers 7.12502
rthumb 5.92095 -63.0607
lclavicle -5.08889e-014 1.11319e-014
lhumerus -22.1696 -14.9067 74.6309
lradius 46.8124
lwrist 24.5751
lhand -26.0734 -13.8669
lfingers 7.12502
lthumb 0.474813 16.1124
rfemur -32.3225 -16.8527 6.20903
rtibia 59.0808
rfoot -28.3928 -10.7514
rtoes -0.798937
lfemur -27.5049 19.6178 -12.441
ltibia 32.431
lfoot -3.92567 6.60315
ltoes -18.3129
